<?xml version="1.0" encoding="utf-8"?>
<!-- Generator: Adobe Illustrator 26.0.0, SVG Export Plug-In . SVG Version: 6.00 Build 0)  -->
<svg version="1.1" id="Camada_1" xmlns="http://www.w3.org/2000/svg" xmlns:xlink="http://www.w3.org/1999/xlink" x="0px" y="0px"
	 viewBox="0 0 1920 1080" style="enable-background:new 0 0 1920 1080;" xml:space="preserve">
<style type="text/css">
	.st0{fill:#2D2D2D;}
	.st1{fill:#FF0044;}
	.st2{fill:#FFFFFF;}
</style>
<g>
	<path class="st0" d="M295.3,803.7h-89.4c-3.2,0-4.8-1.6-4.8-4.8v-15.8c0-3.2,1.6-4.8,4.8-4.8h26.4V611.1h-43.4l1.6,25.1
		c0.2,3.2-1.3,4.8-4.5,4.8h-19.6c-3.2,0-4.8-1.6-4.8-4.8v-46c0-3.2,1.6-4.8,4.8-4.8h168.2c3.2,0,4.8,1.6,4.8,4.8v46
		c0,3.2-1.6,4.8-4.8,4.8h-19.6c-3.2,0-4.7-1.6-4.5-4.8l1.6-25.1h-43.4v167.2h26.7c3.2,0,4.8,1.6,4.8,4.8v15.8
		C300.1,802.1,298.5,803.7,295.3,803.7z"/>
	<path class="st0" d="M427.8,650.2c8.1-6.1,17-9.2,26.7-9.2c9.6,0,17,0.9,22.2,2.6c2.6,0.9,3.9,2.8,3.9,5.8v43.4
		c0,3.2-1.6,4.8-4.8,4.8h-20.9c-3.2,0-4.7-1.6-4.5-4.8l1.3-18.7c-1.1-0.2-2.9-0.3-5.5-0.3c-9.9,0-18,4-24.4,12.1
		c-6.4,8-9.6,18.8-9.6,32.3v60.1h35.4c3.2,0,4.8,1.6,4.8,4.8v15.8c0,3.2-1.6,4.8-4.8,4.8H359c-3.2,0-4.8-1.6-4.8-4.8v-15.8
		c0-3.2,1.6-4.8,4.8-4.8h17V670.9h-17.4c-3.2,0-4.8-1.6-4.8-4.8v-16.7c0-3.2,1.6-4.8,4.8-4.8h42.4c3,0,4.8,1.6,5.5,4.8l3.5,22.8
		C413.7,663.6,419.6,656.3,427.8,650.2z"/>
	<path class="st0" d="M543.9,649l37.6,117l33.4-95.2h-16.4c-3.2,0-4.8-1.6-4.8-4.8v-16.7c0-3.2,1.6-4.8,4.8-4.8h46.9
		c2.6,0,4.3,0.8,5.1,2.3c0.9,1.5,1.3,2.8,1.3,4c0,1.2-0.2,2.3-0.6,3.4l-68.8,179.8c-3.2,8.1-5.9,14.4-8.2,18.8
		c-2.3,4.4-5.4,9.1-9.5,14c-7.9,9.4-19.6,14.1-35,14.1s-28.1-2.4-37.9-7.1c-1.7-0.9-2.6-1.9-2.6-3.2s0.1-2.3,0.3-2.9l5.5-15.8
		c0.9-2.8,2.9-3.8,6.1-2.9c10.3,3.4,18.7,5.1,25.2,5.1c6.5,0,11.6-1.7,15.1-5c3.5-3.3,7.2-10.2,11.1-20.7l8-21.2l-48.9-136.3h-16.1
		c-3.2,0-4.8-1.6-4.8-4.8v-16.7c0-3.2,1.6-4.8,4.8-4.8h42.1C541,644.5,543,646,543.9,649z"/>
	<path class="st0" d="M670.6,798.9v-15.8c0-3.2,1.6-4.8,4.8-4.8h16.7V611.1h-16.7c-3.2,0-4.8-1.6-4.8-4.8v-16.1
		c0-3.2,1.6-4.8,4.8-4.8c27.4-1.3,50.3-1.9,68.5-1.9c55.7,0,83.6,19.9,83.6,59.8c0,13.9-3.5,26.2-10.6,36.8s-16.5,18.7-28.3,24.3
		l37.6,74h19.9c3.2,0,4.8,1.6,4.8,4.8v15.8c0,3.2-1.6,4.8-4.8,4.8h-42.4c-3.2,0-5.6-1.4-7.1-4.2L752.9,713h-6.4
		c-6.9,0-13-0.3-18.3-1v66.2h20.3c3.2,0,4.8,1.6,4.8,4.8v15.8c0,3.2-1.6,4.8-4.8,4.8h-73C672.2,803.7,670.6,802.1,670.6,798.9z
		 M728.1,610.1v77.5c1.7,0.2,4.2,0.3,7.4,0.3c17.4,0,30.9-3.4,40.5-10.3c9.6-6.9,14.5-17.1,14.5-30.9c0-24.4-16.9-36.7-50.8-36.7
		H728.1z"/>
	<path class="st0" d="M941,807.6c-25.5,0-44.2-7.4-56.1-22.3C873,770.3,867,750.6,867,726.1c0-24.5,6.3-44.9,19-60.9
		c12.6-16.1,30.9-24.1,54.7-24.1c11.8,0,21.9,2.2,30.4,6.6c8.5,4.4,15,10.3,19.5,17.8c8.6,14.6,12.9,31.4,12.9,50.5
		c0,9-0.4,13.9-1.3,14.8c-0.9,0.9-2.5,1.3-4.8,1.3h-94.5c1.1,15.4,4.9,27.4,11.4,35.9c6.5,8.5,17.8,12.7,33.9,12.7
		c11.8,0,23.9-2.8,36.3-8.4c3-1.5,5.1-0.6,6.4,2.6l6.1,14.8c1.1,2.6,0.1,4.7-2.9,6.4C979.9,803.7,962.2,807.6,941,807.6z
		 M902.7,708.2h66.9c0.4-26.8-10.1-40.2-31.5-40.2c-12.7,0-21.6,4-26.9,12.1C906,688.1,903.2,697.5,902.7,708.2z"/>
	<path class="st0" d="M1060.9,722c0,39,15.1,58.5,45.3,58.5c9.6,0,20.9-2.9,33.8-8.7c3.2-1.3,5.5-0.3,6.8,2.9l5.8,14.1
		c1.1,3,0.2,5.3-2.6,6.8c-13.1,7.9-29.6,11.9-49.5,11.9c-25.9,0-45.1-7.3-57.6-22c-12.4-14.7-18.6-34.6-18.6-59.8
		c0-25.2,6.4-45.6,19.1-61.3c12.8-15.6,31.8-23.5,57.1-23.5c19.3,0,33.5,5.3,42.8,15.8c9.2,10.5,13.8,23.9,13.8,40.2
		c0,2.8-1.8,4.2-5.5,4.2h-19.3c-3.4,0-5.3-1.6-5.5-4.8c-1.1-18.9-10.6-28.3-28.6-28.3c-12.9,0-22.3,4.5-28.3,13.3
		C1063.9,690.3,1060.9,703.8,1060.9,722z"/>
	<path class="st0" d="M1229.7,778.3h20.3c3.2,0,4.8,1.6,4.8,4.8v15.8c0,3.2-1.6,4.8-4.8,4.8h-76.5c-3.2,0-4.8-1.6-4.8-4.8v-15.8
		c0-3.2,1.6-4.8,4.8-4.8h20.3V670.9h-17.4c-3.2,0-4.8-1.6-4.8-4.8v-16.7c0-3.2,1.6-4.8,4.8-4.8h48.6c3.2,0,4.8,1.6,4.8,4.8V778.3z
		 M1190.8,615.9c-4.1-4.3-6.1-9.8-6.1-16.4c0-6.6,2.1-12.2,6.3-16.6c4.2-4.4,9.8-6.6,16.7-6.6c7,0,12.5,2.2,16.7,6.6
		c4.2,4.4,6.3,9.9,6.3,16.6c0,6.6-2.1,12.1-6.4,16.4c-4.3,4.3-9.9,6.4-16.9,6.4C1200.4,622.4,1194.9,620.2,1190.8,615.9z"/>
	<path class="st0" d="M1286.7,852.3V670.9h-17.4c-3.2,0-4.8-1.6-4.8-4.8v-16.7c0-3.2,1.6-4.8,4.8-4.8h43.7c2.6,0,4.2,1.6,4.8,4.8
		l3.2,19.3c10.9-18.4,27.8-27.7,50.5-27.7c19.7,0,35.2,6.5,46.3,19.5c11.1,13,16.7,32.1,16.7,57.4c0,30.7-6.5,53.3-19.6,67.8
		c-13.1,14.6-29.9,21.9-50.5,21.9c-16.9,0-30.9-4.5-41.8-13.5v57.9h34.1c3.2,0,4.8,1.6,4.8,4.8v16.1c0,3.2-1.6,4.8-4.8,4.8h-87.1
		c-3.2,0-4.8-1.6-4.8-4.8v-15.8c0-3.2,1.6-4.8,4.8-4.8H1286.7z M1322.7,706v61.4c3.4,3.4,8.7,6.5,15.8,9.3c7.1,2.8,14,4.2,20.9,4.2
		c12.4,0,22-4.2,28.8-12.7c6.8-8.5,10.1-22.8,10.1-42.9c0-27.4-6-44.3-18-50.5c-5.1-2.8-12.2-4.2-21.2-4.2c-9,0-17.3,3.2-24.9,9.5
		C1326.5,686.4,1322.7,695,1322.7,706z"/>
	<path class="st0" d="M1531,807.6c-25.5,0-44.2-7.4-56.1-22.3c-11.9-14.9-17.8-34.6-17.8-59.2c0-24.5,6.3-44.9,19-60.9
		c12.6-16.1,30.9-24.1,54.7-24.1c11.8,0,21.9,2.2,30.4,6.6c8.5,4.4,15,10.3,19.5,17.8c8.6,14.6,12.9,31.4,12.9,50.5
		c0,9-0.4,13.9-1.3,14.8c-0.9,0.9-2.5,1.3-4.8,1.3h-94.5c1.1,15.4,4.9,27.4,11.4,35.9c6.5,8.5,17.8,12.7,33.9,12.7
		c11.8,0,23.9-2.8,36.3-8.4c3-1.5,5.1-0.6,6.4,2.6l6.1,14.8c1.1,2.6,0.1,4.7-2.9,6.4C1569.9,803.7,1552.3,807.6,1531,807.6z
		 M1492.8,708.2h66.9c0.4-26.8-10.1-40.2-31.5-40.2c-12.7,0-21.6,4-26.8,12.1C1496,688.1,1493.2,697.5,1492.8,708.2z"/>
	<path class="st0" d="M1634.3,655.2c10.9-9.4,24.8-14.1,41.5-14.1s31.2,1.9,43.4,5.8c3,0.9,4.5,2.8,4.5,5.8v34.1
		c0,3.2-1.6,4.8-4.8,4.8h-18.7c-3.4,0-4.8-1.6-4.2-4.8l1.6-16.4c-6.4-3.4-13.5-5.1-21.2-5.1c-17.2,0-25.7,6-25.7,18
		c0,6.2,2.8,11.1,8.4,14.8c5.6,3.6,12.3,6.6,20.3,8.8c7.9,2.3,15.9,4.8,24,7.7c8,2.9,14.8,7.8,20.4,14.8c5.6,7,8.4,15.8,8.4,26.5
		c0,16.3-5.7,29-17,38.1c-11.4,9.1-27.3,13.7-47.9,13.7c-14.4,0-29.5-2.1-45.3-6.4c-2.8-0.9-4.2-2.9-4.2-6.1v-34.1
		c0-3.2,1.6-4.8,4.8-4.8h18.7c3.2,0,4.7,1.6,4.5,4.8l-1,16.7c5.8,4.3,14,6.4,24.8,6.4c19.1,0,28.6-6.8,28.6-20.3
		c0-6.9-2.7-12.3-8.2-16.2c-5.5-4-12.1-7-19.9-9.2c-7.8-2.1-15.7-4.6-23.6-7.2c-7.9-2.7-14.6-7.4-20.1-14.1
		c-5.5-6.8-8.2-15.6-8.2-26.5C1617.9,676.4,1623.3,664.6,1634.3,655.2z"/>
</g>
<g>
	<path class="st1" d="M659.7,899.9v10.7h-27.5v16.9h21.1V938h-21.1v27.9h-13.2v-66H659.7z"/>
	<path class="st1" d="M682.7,962.2c-5.2-2.9-9.3-6.9-12.3-12.1c-3-5.1-4.5-11-4.5-17.4c0-6.4,1.5-12.2,4.5-17.4
		c3-5.1,7.1-9.2,12.3-12.1c5.2-2.9,10.8-4.4,17-4.4c6.2,0,11.9,1.5,17.1,4.4c5.1,2.9,9.2,6.9,12.2,12.1c3,5.1,4.5,10.9,4.5,17.4
		c0,6.5-1.5,12.3-4.5,17.4c-3,5.1-7.1,9.2-12.2,12.1c-5.2,2.9-10.8,4.4-17,4.4C693.5,966.6,687.9,965.1,682.7,962.2z M710.2,952.1
		c3-1.8,5.4-4.4,7.1-7.7c1.7-3.3,2.6-7.2,2.6-11.6s-0.9-8.3-2.6-11.6c-1.7-3.3-4.1-5.8-7.1-7.6c-3-1.8-6.5-2.6-10.5-2.6
		c-4,0-7.5,0.9-10.5,2.6c-3.1,1.8-5.4,4.3-7.1,7.6c-1.7,3.3-2.6,7.2-2.6,11.6s0.9,8.3,2.6,11.6c1.7,3.3,4.1,5.9,7.1,7.7
		c3.1,1.8,6.6,2.7,10.5,2.7C703.7,954.8,707.2,953.9,710.2,952.1z"/>
	<path class="st1" d="M756.9,962.2c-5.2-2.9-9.3-6.9-12.3-12.1c-3-5.1-4.5-11-4.5-17.4c0-6.4,1.5-12.2,4.5-17.4
		c3-5.1,7.1-9.2,12.3-12.1c5.2-2.9,10.8-4.4,17-4.4c6.2,0,11.9,1.5,17.1,4.4c5.1,2.9,9.2,6.9,12.2,12.1c3,5.1,4.5,10.9,4.5,17.4
		c0,6.5-1.5,12.3-4.5,17.4c-3,5.1-7.1,9.2-12.2,12.1c-5.2,2.9-10.8,4.4-17,4.4C767.8,966.6,762.1,965.1,756.9,962.2z M784.4,952.1
		c3-1.8,5.4-4.4,7.1-7.7c1.7-3.3,2.6-7.2,2.6-11.6s-0.9-8.3-2.6-11.6c-1.7-3.3-4.1-5.8-7.1-7.6c-3-1.8-6.5-2.6-10.5-2.6
		c-4,0-7.5,0.9-10.5,2.6c-3.1,1.8-5.4,4.3-7.1,7.6c-1.7,3.3-2.6,7.2-2.6,11.6s0.9,8.3,2.6,11.6c1.7,3.3,4.1,5.9,7.1,7.7
		c3.1,1.8,6.6,2.7,10.5,2.7C777.9,954.8,781.4,953.9,784.4,952.1z"/>
	<path class="st1" d="M858.9,904c5.3,2.7,9.3,6.6,12.2,11.6c2.9,5,4.3,10.8,4.3,17.4s-1.4,12.4-4.3,17.4c-2.9,5-6.9,8.8-12.2,11.5
		c-5.3,2.7-11.4,4.1-18.3,4.1h-23.1v-66h23.1C847.6,899.9,853.7,901.3,858.9,904z M856.2,949c3.8-3.8,5.7-9.1,5.7-16
		c0-6.9-1.9-12.2-5.7-16.1c-3.8-3.9-9.1-5.8-16.1-5.8h-9.4v43.6h9.4C847.1,954.7,852.4,952.8,856.2,949z"/>
	<path class="st1" d="M958.6,965.9l-7.2-7.1c-6.1,5.5-13.6,8.2-22.4,8.2c-4.9,0-9.1-0.8-12.8-2.5s-6.5-4-8.6-7.1
		c-2-3.1-3-6.6-3-10.6c0-4.4,1.2-8.3,3.7-11.7c2.5-3.5,6.1-6.3,10.9-8.4c-1.7-2.1-2.9-4.1-3.7-6c-0.8-1.9-1.1-4-1.1-6.2
		c0-3,0.8-5.8,2.4-8.2c1.6-2.4,3.8-4.3,6.8-5.7c2.9-1.4,6.4-2.1,10.3-2.1c4,0,7.4,0.8,10.2,2.3c2.8,1.5,4.9,3.5,6.3,6.1
		c1.4,2.5,2,5.3,1.8,8.4h-12.9c0.1-2.1-0.4-3.7-1.5-4.8c-1.1-1.1-2.5-1.7-4.4-1.7c-1.8,0-3.2,0.5-4.4,1.6c-1.2,1-1.7,2.4-1.7,4
		c0,1.6,0.5,3.1,1.4,4.7c0.9,1.5,2.5,3.5,4.6,5.7l16.6,16.5c0.1-0.1,0.2-0.3,0.3-0.4c0.1-0.1,0.1-0.3,0.2-0.4l5.4-9h13.8l-6.6,11.6
		c-1.3,2.5-2.6,4.8-4.1,7l16,15.8H958.6z M943.1,950.6l-16.3-16.1c-6.1,2.7-9.2,6.6-9.2,11.5c0,2.8,1.1,5.2,3.2,7.1
		c2.1,1.9,5,2.9,8.5,2.9C934.6,956.1,939.2,954.3,943.1,950.6z"/>
	<path class="st1" d="M1045.3,904c5.3,2.7,9.3,6.6,12.2,11.6c2.9,5,4.3,10.8,4.3,17.4s-1.4,12.4-4.3,17.4c-2.9,5-6.9,8.8-12.2,11.5
		c-5.3,2.7-11.4,4.1-18.3,4.1h-23.1v-66h23.1C1034,899.9,1040.1,901.3,1045.3,904z M1042.6,949c3.8-3.8,5.7-9.1,5.7-16
		c0-6.9-1.9-12.2-5.7-16.1c-3.8-3.9-9.1-5.8-16.1-5.8h-9.4v43.6h9.4C1033.5,954.7,1038.8,952.8,1042.6,949z"/>
	<path class="st1" d="M1105.8,965.9l-14.6-25.7h-6.2v25.7h-13.2v-66h24.8c5.1,0,9.5,0.9,13.1,2.7s6.3,4.2,8.1,7.3
		c1.8,3.1,2.7,6.5,2.7,10.3c0,4.3-1.3,8.3-3.8,11.8c-2.5,3.5-6.3,5.9-11.3,7.2l15.8,26.8H1105.8z M1085,930.3h11.1
		c3.6,0,6.3-0.9,8-2.6c1.8-1.7,2.6-4.1,2.6-7.2c0-3-0.9-5.4-2.6-7c-1.8-1.7-4.4-2.5-8-2.5H1085V930.3z"/>
	<path class="st1" d="M1145.6,899.9v66h-13.2v-66H1145.6z"/>
	<path class="st1" d="M1215.1,965.9h-13.2l-30-45.3v45.3h-13.2v-66.1h13.2l30,45.4v-45.4h13.2V965.9z"/>
	<path class="st1" d="M1265.4,965.9l-24-29.4v29.4h-13.2v-66h13.2v29.6l24-29.6h16l-27.2,32.7l28,33.3H1265.4z"/>
</g>
<path class="st1" d="M1148.6,501H726V78.4c0-11.8,9.6-21.4,21.4-21.4H1170v422.6C1170,491.4,1160.4,501,1148.6,501z"/>
<path class="st2" d="M1058,223.5c-0.5,0-0.9,0.1-1.4,0.1c-4.1,0.1-8,0.7-11.9,1.6c-0.3,0.1-0.6,0.1-0.9,0.2
	c-13.1,3.5-24.3,11.6-31.6,22.6c5.4-15.3,17.4-27.5,32.6-33.1c-1.4-44.2-37.7-79.7-82.3-79.7c-32.8,0-61,19.2-74.2,46.9c0,0,0,0,0,0
	c20.1,12.4,33.5,34.5,33.5,59.8c0,0.6-0.1,1.1-0.1,1.7c-5.4-20.6-19.9-37.6-39-46.3c0,0,0,0,0,0c-2.2-1-4.4-1.9-6.7-2.6
	c-0.2-0.1-0.3-0.1-0.5-0.1c-2-0.6-4-1.2-6-1.7c-0.6-0.1-1.1-0.3-1.7-0.4c-1.7-0.3-3.4-0.6-5.1-0.8c-0.7-0.1-1.4-0.2-2.1-0.3
	c-2.1-0.2-4.3-0.3-6.4-0.4c-0.2,0-0.4,0-0.6,0c-1.7,0-3.4,0.1-5.1,0.3c-0.7,0-1.4,0-2.1,0.1c-1,0.1-1.9,0.3-2.8,0.4
	c-1.4,0.2-2.8,0.4-4.1,0.6c-0.8,0.2-1.6,0.4-2.5,0.6c-1.4,0.3-2.9,0.7-4.2,1.1c-0.8,0.3-1.6,0.6-2.5,0.9c-1.3,0.5-2.7,0.9-4,1.4
	c-0.9,0.4-1.7,0.8-2.6,1.2c-1.2,0.5-2.4,1.1-3.5,1.7c-1,0.5-1.9,1.1-2.8,1.7c-1,0.6-2,1.1-2.9,1.8c-1,0.7-2,1.5-3,2.2
	c-0.8,0.6-1.6,1.2-2.4,1.8c-1.1,0.9-2.1,1.8-3.1,2.7c-0.6,0.6-1.3,1.1-1.9,1.7c-1.1,1.1-2.1,2.2-3.1,3.3c-0.5,0.5-1,1-1.4,1.6
	c-1,1.2-2,2.6-3,3.9c-0.3,0.5-0.7,0.9-1.1,1.4c-1,1.4-1.9,2.9-2.8,4.4c-0.2,0.4-0.5,0.8-0.8,1.3c-0.9,1.6-1.7,3.2-2.4,4.9
	c-0.2,0.4-0.4,0.8-0.6,1.2c-0.7,1.7-1.4,3.4-2,5.2c-0.1,0.4-0.3,0.7-0.4,1.1c-0.6,1.8-1.1,3.6-1.5,5.5c-0.1,0.4-0.2,0.8-0.3,1.2
	c-0.4,1.8-0.7,3.7-1,5.6c-0.1,0.4-0.1,0.9-0.2,1.3c-0.2,1.8-0.3,3.7-0.4,5.6c0,1-0.1,1.9-0.1,2.9c0,38.9,31.5,70.4,70.4,70.4
	c3.5,0,6.8-0.3,10.1-0.8v76.1c0,0,0,0,0,0c0,7.7,40,14,89.2,14c49.3,0,88.8-6.3,88.8-14.1l0-1.4v-74.8c5.1,1.6,10.5,2.4,16.2,2.4
	c23.9,0,44.2-15.3,51.7-36.7c0.4-1.3,0.8-2.5,1.2-3.8c0.1-0.2,0.1-0.4,0.2-0.6c0.3-1.3,0.6-2.6,0.9-4c0-0.2,0.1-0.5,0.1-0.7
	c0.5-2.9,0.8-5.9,0.8-8.9C1113,248.2,1088.4,223.5,1058,223.5z M963.1,143.4c36.8,0,67.4,26.5,73.9,61.5
	c-12.7-34.1-45.4-58.4-83.9-58.4c-5.3,0-10.5,0.6-15.6,1.4C945.5,145.1,954.1,143.4,963.1,143.4z M953.3,313.4
	c42.2,0,76.8,7,80.5,14.8c-12.4-4.8-43.7-8.2-80.5-8.2c-36.8,0-68.1,3.4-80.5,8.2C876.5,320.4,911.1,313.4,953.3,313.4z
	 M953.3,379.8c42.2,0,77,5.5,80.5,11.8c-12.4-4.8-43.7-8.2-80.5-8.2c-36.8,0-68.1,3.4-80.5,8.2C876.3,385.2,911.1,379.8,953.3,379.8
	z M953.3,413.5c-44.7,0-80.9-5.3-80.9-11.9c0-6.6,36.2-11.9,80.9-11.9c44.7,0,80.9,5.3,80.9,11.9
	C1034.2,408.2,998,413.5,953.3,413.5z M1052.2,233c-3.3,0-6.6,0.3-9.8,0.9c5-1.8,10.4-2.9,16.1-2.9c23.1,0,42.4,16.7,46.4,38.6
	C1096.9,248.3,1076.3,233,1052.2,233z"/>
<rect x="548" y="927" class="st1" width="43" height="16"/>
<rect x="1306" y="927" class="st1" width="43" height="16"/>
</svg>
